# xmcd
#
# Track frame offsets:
#	150
#	21236
#	35831
#	52282
#	65004
#	79499
#	93051
#	108447
#	124065
#	139598
#	154583
#	166604
#	177329
#	191442
#	204261
#	218345
#	232585
#	246486
#	260980
#	275339
#	288867
#	302704
#	316099
#	328510
#	341546
#
# Disc length: 4720 seconds
#
# Revision: 0
# Processed by: cddbd v1.5.2PL0 Copyright (c) Steve Scherf et al.
# Submitted via: dBpowerAMP V4.0
#
DISCID=61126e19
DTITLE=Various Artist - American Murder Ballads [CD2 Of 2]
DYEAR=2009
DGENRE=Country
TTITLE0=Cisco Houston-/ The Killer
TTITLE1=Lead Belly-/ John Hardy
TTITLE2=Ramblin' Jack Elliot-/ 1913 Massacre
TTITLE3=Pete Seeger-/ The Three Butchers
TTITLE4=Burl Ives-/ Darlin' Cory
TTITLE5=Johnny Cash-/ Don't Take Your Guns To Town
TTITLE6=Woody Guthrie-/ Tom Joad (Part 1)
TTITLE7=Woody Guthrie-/ Tom Joad (Part 2)
TTITLE8=The Carolina Buddies-/ The Murder Of The Lawson Family
TTITLE9=The Blue Sky Boys-/ The Banks Of The Ohio
TTITLE10=Molly O'Day And The Cumberland Mountain Boys-/ Poor Ellen Smith
TTITLE11=Ernest Stoneman-/ Kenney Wagner's Surrender
TTITLE12=Kelly Harrell-/ Henry Clay Beattie
TTITLE13=Pete Seeger-/ Barbara Allen
TTITLE14=Earl Johnson-/ The Little Grave In Georgia
TTITLE15=Burl Ives-/ The Ballad Of Roger Young
TTITLE16=Ashley and Foster-/ Frankie Silvers
TTITLE17=Josh White-/ Lord Randall, My Son
TTITLE18=G.B. Grayson-/ Omie Wise
TTITLE19=Bill Cox-/ Trial Of Richard Bruno Hauptmann (Part 1)
TTITLE20=Bill Cox-/ Trial Of Richard Bruno Hauptmann (Part 2)
TTITLE21=Sippie Wallace-/ Murder's Gonna Be My Crime
TTITLE22=Joan O'Bryant-/ The Texas Rangers
TTITLE23=The Carter Family-/ Bury Me Under The Weeping Willow
TTITLE24=Lead Belly-/ The Gallis Pole
EXTD=
EXTT0=
EXTT1=
EXTT2=
EXTT3=
EXTT4=
EXTT5=
EXTT6=
EXTT7=
EXTT8=
EXTT9=
EXTT10=
EXTT11=
EXTT12=
EXTT13=
EXTT14=
EXTT15=
EXTT16=
EXTT17=
EXTT18=
EXTT19=
EXTT20=
EXTT21=
EXTT22=
EXTT23=
EXTT24=
PLAYORDER=
